<?xml version="1.0" encoding="utf-8"?>
<!-- Generator: Adobe Illustrator 16.0.4, SVG Export Plug-In . SVG Version: 6.00 Build 0)  -->
<!DOCTYPE svg PUBLIC "-//W3C//DTD SVG 1.1//EN" "http://www.w3.org/Graphics/SVG/1.1/DTD/svg11.dtd">
<svg version="1.1" id="Layer_1" xmlns="http://www.w3.org/2000/svg" xmlns:xlink="http://www.w3.org/1999/xlink" x="0px" y="0px"
	 width="596px" height="596px" viewBox="-0.36 113.945 596 596" enable-background="new -0.36 113.945 596 596"
	 xml:space="preserve">
<g>
	<g>
		<path fill="#FFFFFF" d="M459.908,191.919H84.643c-17.725,0-32.393,14.057-32.393,31.781v376.489
			c0,17.725,14.668,31.781,32.393,31.781h375.266c17.726,0,32.394-14.057,32.394-31.781V223.701
			C492.302,205.977,477.634,191.919,459.908,191.919z M183.043,567.186h-65.396V356.939h65.396V567.186z M150.04,328.213
			c-20.78,0-37.894-17.114-37.894-37.894c0-20.78,17.113-37.894,37.894-37.894c20.779,0,37.894,17.113,37.894,37.894
			C187.933,311.1,170.819,328.213,150.04,328.213z M427.516,567.186h-65.396V464.508c0-24.447-0.611-55.619-33.615-55.619
			c-34.226,0-39.115,26.281-39.115,53.785v103.9h-65.396V356.939h62.341v28.726h0.611c8.556-16.502,29.947-33.615,61.729-33.615
			c66.009,0,78.231,43.394,78.231,100.233v114.902H427.516z"/>
	</g>
	<g>
		<path fill="#FFFFFF" d="M524.695,552.518h-3.056v-6.723h4.278c1.834,0,4.278,0.609,4.278,3.055
			C530.196,552.518,527.751,552.518,524.695,552.518z M527.751,554.352c3.055-0.611,4.889-2.445,4.889-4.891
			c0-3.666-2.444-5.5-6.723-5.5h-7.335v18.947h3.057v-8.557h3.666l0,0l5.501,8.557h3.056L527.751,554.352L527.751,554.352z"/>
		<path fill="#FFFFFF" d="M524.695,569.02c-8.556,0-15.28-6.723-15.28-15.891s6.725-15.891,15.28-15.891
			c8.557,0,15.279,6.723,15.279,15.891C540.585,562.297,533.862,569.02,524.695,569.02z M524.695,535.404
			c-10.391,0-18.336,7.945-18.336,18.336s7.945,18.334,18.336,18.334s18.335-7.943,18.335-18.334S535.085,535.404,524.695,535.404z"
			/>
	</g>
</g>
</svg>
